<svg xmlns="http://www.w3.org/2000/svg" viewBox="0 0 800 500" width="800" height="500" preserveAspectRatio="xMidYMid slice" role="img" aria-label="Kitobxonlik">
  <defs>
    <linearGradient id="g1" x1="0" y1="0" x2="1" y2="1">
      <stop offset="0" stop-color="#b45309"/><stop offset="1" stop-color="#fbbf24"/>
    </linearGradient>
    <filter id="bl" x="-30%" y="-30%" width="160%" height="160%"><feGaussianBlur stdDeviation="55"/></filter>
  </defs>
  <rect width="800" height="500" fill="url(#g1)"/>
  <g filter="url(#bl)">
    <circle cx="150" cy="110" r="130" fill="#ffffff" opacity=".30"/>
    <circle cx="670" cy="390" r="160" fill="#000000" opacity=".18"/>
    <circle cx="580" cy="80" r="95" fill="#ffffff" opacity=".22"/>
    <circle cx="330" cy="300" r="110" fill="#ffffff" opacity=".12"/>
  </g>
  <path d="M0 360 C160 300 270 430 430 392 C570 358 665 292 800 332 L800 500 L0 500Z" fill="#ffffff" opacity=".13"/>
  <path d="M0 412 C180 372 305 465 465 434 C625 404 705 356 800 386 L800 500 L0 500Z" fill="#ffffff" opacity=".10"/>
  <text x="42" y="450" font-family="Segoe UI, Arial, sans-serif" font-size="27" font-weight="700" fill="#ffffff" opacity=".95">Kitobxonlik</text>
  <text x="42" y="478" font-family="Segoe UI, Arial, sans-serif" font-size="14" fill="#ffffff" opacity=".62">Vaqtinchalik stock rasm</text>
</svg>
